<svg xmlns="http://www.w3.org/2000/svg" width="744" height="101" viewBox="0 0 744 101" fill="none"><path fill-rule="evenodd" clip-rule="evenodd" d="M65.2495 99.1282L137.594 4.08031C137.912 3.72149 138.115 3.27296 138.173 2.79996C138.23 2.32696 138.148 1.84581 137.928 1.41359C137.732 0.997679 137.414 0.638854 137.023 0.3942C136.631 0.141392 136.183 0.0109102 135.718 0.00275509C135.441 -0.00540003 135.171 0.00275508 134.902 0.0516858H134.715L2.0719 20.8309C1.62337 20.9043 1.20746 21.1 0.864942 21.3936C0.522427 21.6872 0.261464 22.0705 0.122827 22.5027C-0.0158099 22.9349 -0.0402752 23.3916 0.0657412 23.832C0.171758 24.2724 0.391946 24.6801 0.709995 24.9982L0.856787 25.1368C0.913873 25.1857 0.970959 25.2428 1.01989 25.3081L19.0508 45.6714C19.1895 45.8263 19.3444 45.965 19.5157 46.0955C20.2007 46.5603 20.9754 46.862 21.7991 46.968C22.6146 47.0741 23.4546 46.9844 24.2293 46.7071L95.766 20.8554C95.8475 20.8309 95.9291 20.8228 96.0106 20.8309C96.0922 20.8309 96.1737 20.8635 96.2471 20.9043C96.3205 20.9451 96.3858 20.994 96.4347 21.0593C96.4836 21.1245 96.5244 21.1979 96.5489 21.2794C96.5815 21.4099 96.5733 21.5486 96.5244 21.679C96.4755 21.8095 96.3858 21.9155 96.2716 21.9889L33.0205 56.2159C32.7596 56.3546 32.5557 56.5748 32.4415 56.8439L20.1926 87.4256C19.9968 87.9149 19.9642 88.4613 20.0947 88.975C20.2333 89.4888 20.5269 89.9455 20.9428 90.2717C21.3587 90.5979 21.8725 90.7855 22.4026 90.8018C22.9327 90.8181 23.4546 90.6631 23.8868 90.3614L44.3398 76.6771L61.3596 98.9569C61.7347 99.4951 62.3056 99.854 62.9498 99.9681C63.5941 100.082 64.2546 99.9355 64.7929 99.5604C64.956 99.4462 65.1028 99.3157 65.2414 99.1689V99.1363L65.2495 99.1282Z" fill="#222222"></path><path fill-rule="evenodd" clip-rule="evenodd" d="M183.547 93.7536C183.547 94.4631 183.833 95.14 184.33 95.6375C184.828 96.1349 185.513 96.4204 186.214 96.4204H199.654C200.363 96.4204 201.04 96.1349 201.538 95.6375C202.035 95.14 202.321 94.455 202.321 93.7536V63.0578H221.689C226.721 63.1149 231.654 61.7122 235.911 59.0373C240.144 56.3625 243.651 52.6763 246.13 48.3215C248.707 43.7873 250.036 38.6496 249.971 33.4303C250.028 28.2192 248.707 23.0814 246.13 18.5472C243.7 14.2005 240.177 10.5633 235.903 8.00264C231.646 5.32777 226.704 3.93324 221.681 3.99033H186.206C185.497 3.99033 184.82 4.2676 184.322 4.77322C183.825 5.27068 183.539 5.95571 183.539 6.65705V93.7536H183.547ZM229.559 39.2123C228.719 40.8596 227.495 42.2786 226.003 43.3632C224.666 44.2847 223.075 44.7822 221.452 44.7659H202.337V22.2333H221.452C223.108 22.2088 224.723 22.7063 226.085 23.636C227.569 24.6554 228.768 26.0336 229.575 27.6483C230.529 29.3853 231.01 31.3344 230.978 33.308C231.01 35.363 230.521 37.3937 229.559 39.2123ZM302.139 94.0799C307.864 96.4938 314.029 97.7007 320.243 97.6355C326.417 97.7089 332.541 96.4938 338.234 94.0799C343.689 91.7556 348.607 88.3305 352.676 84.0083C356.827 79.6779 360.065 74.5565 362.185 68.9458C364.501 62.9599 365.667 56.5908 365.61 50.1809C365.684 43.7954 364.518 37.4589 362.185 31.5057C360.081 25.8542 356.844 20.6838 352.676 16.3209C348.615 11.9986 343.698 8.56535 338.234 6.24929C332.55 3.83538 326.425 2.62027 320.243 2.69367C314.029 2.62842 307.864 3.83538 302.139 6.24929C296.708 8.61428 291.798 12.0394 287.705 16.3209C283.578 20.6838 280.34 25.8216 278.196 31.4323C275.953 37.4263 274.836 43.7873 274.909 50.1809C274.844 56.6234 275.961 63.017 278.188 69.06V69.1007C280.381 74.6625 283.603 79.7595 287.68 84.1306C291.798 88.3631 296.716 91.7393 302.139 94.0799ZM330.764 77.1254C327.477 78.5688 323.921 79.2946 320.333 79.2539C316.688 79.2946 313.067 78.5688 309.715 77.1172C306.567 75.6982 303.737 73.6676 301.373 71.1477C298.975 68.4728 297.132 65.3494 295.949 61.965C294.612 58.1811 293.951 54.1932 293.992 50.1727C293.935 46.1604 294.596 42.1807 295.941 38.4049C297.124 35.0205 298.967 31.8971 301.364 29.2304C305.083 25.3649 309.886 22.7145 315.147 21.6461C320.407 20.5778 325.862 21.1405 330.796 23.2527C333.936 24.6472 336.741 26.7105 339 29.2956C341.439 31.9787 343.306 35.1265 344.513 38.5435C345.916 42.2296 346.617 46.1523 346.576 50.0993C346.617 54.1116 345.916 58.0913 344.513 61.8427C343.282 65.2271 341.439 68.3586 339.065 71.0743C336.749 73.6513 333.92 75.7145 330.764 77.1172V77.1254ZM412.731 95.6783C417.265 97.032 421.978 97.7007 426.708 97.66C433.542 97.66 439.594 96.5427 444.748 94.1859C449.69 91.9432 453.881 88.3142 456.825 83.7473C459.753 78.9847 461.245 73.4719 461.131 67.8856C461.147 64.5747 460.365 61.3045 458.856 58.3523C457.339 55.3268 455.202 52.66 452.576 50.5316C449.624 48.1421 446.321 46.2012 442.798 44.7822C438.713 43.0207 434.464 41.6751 430.109 40.7617C427.418 40.2398 424.768 39.5303 422.166 38.6332C420.445 38.0053 418.814 37.149 417.322 36.0807C416.392 35.2815 415.626 34.3029 415.071 33.2101C414.557 32.0276 414.296 30.7472 414.313 29.4587C414.256 27.8114 414.769 26.1885 415.756 24.8593C416.971 23.3424 418.57 22.1681 420.388 21.4749C422.761 20.5615 425.289 20.113 427.826 20.1782C430.215 20.1619 432.58 20.6023 434.806 21.483H434.88C437.09 22.3067 439.112 23.5626 440.833 25.1692C442.831 26.9714 444.544 29.0673 445.914 31.3915C446.281 31.995 446.876 32.4272 447.561 32.5903C448.246 32.7534 448.972 32.6474 449.575 32.2804C449.755 32.1662 449.918 32.0358 450.073 31.889L459.533 22.5351C459.949 22.1191 460.218 21.5809 460.299 20.9937C460.381 20.4066 460.259 19.8194 459.965 19.3056C457.959 15.7745 455.284 12.6837 452.079 10.1882C448.858 7.63566 445.18 5.71921 441.249 4.52857C437 3.24821 432.572 2.62027 428.136 2.66104C423.83 2.62027 419.548 3.29714 415.463 4.65905C411.662 5.84154 408.123 7.73353 405.024 10.2371C402.129 12.5777 399.748 15.4809 398.011 18.7755V18.8326C396.322 22.217 395.458 25.952 395.483 29.736C395.434 33.3732 396.029 36.9859 397.26 40.4029C398.5 43.6079 400.4 46.5111 402.847 48.9332C405.489 51.5183 408.588 53.606 411.98 55.074C415.952 56.8028 420.103 58.0832 424.36 58.8987H424.433C426.831 59.3065 429.188 59.9018 431.495 60.6765H431.585C433.339 61.1984 435.035 61.9079 436.633 62.805C437.865 63.4411 438.982 64.2729 439.952 65.2678L440.026 65.3494C440.809 66.0997 441.412 67.0049 441.804 68.0161C442.195 69.0681 442.391 70.1854 442.383 71.3026C442.399 72.8684 441.828 74.3853 440.784 75.5433C439.414 77.0683 437.685 78.2182 435.752 78.9032C433.314 79.8003 430.729 80.2488 428.127 80.208C423.944 80.3303 419.809 79.3028 416.18 77.2314C412.91 75.266 409.265 71.5881 405.293 65.9121C405.089 65.6267 404.836 65.382 404.543 65.1944C404.249 65.0069 403.915 64.8764 403.572 64.8193C403.23 64.7622 402.871 64.7622 402.529 64.8438C402.186 64.9172 401.86 65.064 401.574 65.2597C401.395 65.382 401.24 65.5288 401.093 65.6919L391.878 76.2691C391.487 76.7176 391.258 77.2803 391.226 77.8756C391.193 78.471 391.356 79.0581 391.69 79.5474C394.259 83.3314 397.374 86.7158 400.938 89.5782H401.004C404.535 92.2776 408.506 94.3408 412.739 95.6864L412.731 95.6783ZM510.062 93.7455C510.062 94.455 510.339 95.1319 510.845 95.6293C511.342 96.1268 512.027 96.4122 512.729 96.4122H526.168C526.878 96.4122 527.555 96.1268 528.052 95.6293C528.549 95.1319 528.835 94.4468 528.835 93.7455V22.2333H551.31C552.02 22.2333 552.697 21.956 553.194 21.4504C553.692 20.953 553.977 20.2679 553.977 19.5666V6.62443C553.977 5.91493 553.7 5.23806 553.194 4.7406C552.697 4.24314 552.012 3.95771 551.31 3.95771H488.369C487.66 3.95771 486.983 4.23498 486.485 4.7406C485.988 5.23806 485.703 5.92309 485.703 6.62443V19.5666C485.703 20.2761 485.98 20.953 486.485 21.4504C486.983 21.9479 487.668 22.2333 488.369 22.2333H510.103L510.062 93.7536V93.7455ZM568.795 92.775C568.64 93.1746 568.583 93.615 568.632 94.0472C568.681 94.4795 568.836 94.8872 569.08 95.246C569.325 95.6049 569.651 95.8984 570.035 96.0942C570.418 96.298 570.842 96.4041 571.274 96.4041H584.967C585.505 96.4041 586.035 96.241 586.483 95.9392C586.932 95.6293 587.274 95.1971 587.462 94.6915L595.063 74.7604H627.838L635.398 94.7078C635.594 95.2134 635.928 95.6456 636.376 95.9555C636.817 96.2654 637.347 96.4285 637.885 96.4285H652.197C652.907 96.4285 653.584 96.1431 654.081 95.6456C654.579 95.1482 654.864 94.4631 654.864 93.7618C654.864 93.4356 654.807 93.1094 654.685 92.7995L621.183 5.65397C620.988 5.14835 620.645 4.71613 620.205 4.40624C619.756 4.09634 619.226 3.93324 618.688 3.9414H604.995C604.457 3.9414 603.935 4.11265 603.487 4.41439C603.046 4.72429 602.704 5.15651 602.516 5.65397L568.787 92.7832L568.795 92.775ZM615.516 42.2133L620.922 56.4359H602.003L607.254 42.6292V42.564C607.752 41.1613 608.372 39.4243 609.122 37.3529C609.88 35.1755 610.623 32.9084 611.381 30.4618L611.479 30.1682L611.544 30.3477C612.433 33.0715 613.224 35.5261 613.885 37.7362V37.8177C614.635 39.9788 615.181 41.4794 615.524 42.2133H615.516ZM683.562 93.7781C683.562 94.4876 683.839 95.1645 684.345 95.6619C684.842 96.1594 685.527 96.4448 686.229 96.4448H740.468C741.178 96.4448 741.855 96.1676 742.352 95.6619C742.849 95.1645 743.135 94.4795 743.135 93.7781V80.7952C743.135 80.0857 742.858 79.4088 742.352 78.9113C741.855 78.4139 741.17 78.1285 740.468 78.1285H702.31V6.62443C702.31 5.91493 702.033 5.23806 701.528 4.7406C701.03 4.24314 700.345 3.95771 699.644 3.95771H686.204C685.495 3.95771 684.818 4.23498 684.32 4.7406C683.823 5.23806 683.537 5.92309 683.537 6.62443L683.57 93.7944L683.562 93.7781Z" fill="#222222"></path></svg>