<svg xmlns="http://www.w3.org/2000/svg" xmlns:xlink="http://www.w3.org/1999/xlink" id="Layer_1" x="0px" y="0px" viewBox="0 0 40.5 39.2" style="enable-background:new 0 0 40.5 39.2;" xml:space="preserve"><style type="text/css">	.st0{fill:#EABC28;}</style><path class="st0" d="M38.2,17.5L36.1,11h-0.1c-1.4,0-3.1,0.4-4.8,1.1c-0.5,0.2-1-0.4-0.6-0.8c1.3-1.5,2.3-3,2.8-4.5l-5.4-4 c-1.2,1-2.3,2.3-3.2,3.7c-0.3,0.5-1,0.2-1-0.3c0-0.4,0-0.7,0-1c0-1.4-0.1-2.6-0.4-3.4h-6.7c-0.2,0.8-0.4,2-0.4,3.4c0,0.3,0,0.7,0,1 c0,0.5-0.7,0.8-1,0.3c-0.9-1.4-1.9-2.7-3.2-3.7l-5.4,4c0.5,1.5,1.5,3,2.8,4.5c0.4,0.4-0.1,1-0.6,0.8C7.4,11.5,5.8,11,4.3,11H4.2 l-2.1,6.5c1,0.6,2.3,1.2,3.9,1.6c0.5,0.1,0.5,0.9,0,1c-1.6,0.4-3,1-3.9,1.6l2.1,6.5h0.1c1.4,0,3.1-0.4,4.8-1.1 c0.5-0.2,1,0.4,0.6,0.8c-1.3,1.5-2.3,3-2.8,4.5l5.4,4c1.2-1,2.3-2.3,3.2-3.7c0.3-0.5,1-0.2,1,0.3c0,0.4,0,0.7,0,1 c0,1.4,0.1,2.6,0.4,3.4h6.7c0.2-0.8,0.4-2,0.4-3.4c0-0.3,0-0.7,0-1c0-0.5,0.7-0.8,1-0.3c0.9,1.4,1.9,2.7,3.2,3.7l5.4-4 c-0.5-1.5-1.5-3-2.8-4.5c-0.4-0.4,0.1-1,0.6-0.8c1.7,0.7,3.3,1.1,4.8,1.1h0.1l2.1-6.5c-1-0.6-2.3-1.2-3.9-1.6c-0.5-0.1-0.5-0.9,0-1 C35.8,18.7,37.2,18.1,38.2,17.5z"></path></svg>